<?xml version="1.0" standalone="no"?>
<!DOCTYPE svg PUBLIC "-//W3C//DTD SVG 20010904//EN"
 "http://www.w3.org/TR/2001/REC-SVG-20010904/DTD/svg10.dtd">
<svg version="1.0" xmlns="http://www.w3.org/2000/svg"
 width="300.000000pt" height="300.000000pt" viewBox="0 0 300.000000 300.000000"
 preserveAspectRatio="xMidYMid meet">
<metadata>
Created by potrace 1.10, written by Peter Selinger 2001-2011
</metadata>
<g transform="translate(0.000000,300.000000) scale(0.100000,-0.100000)"
fill="#000000" stroke="none">
<path d="M1310 2906 c-318 -46 -585 -180 -810 -406 -208 -207 -345 -467 -396
-750 -24 -128 -24 -372 0 -498 53 -289 188 -546 395 -752 211 -210 466 -344
751 -397 129 -23 371 -23 500 0 503 93 919 448 1089 930 57 162 74 271 74 467
0 196 -17 305 -74 467 -168 474 -569 823 -1062 924 -131 26 -340 33 -467 15z
m440 -40 c36 -8 74 -17 85 -20 11 -3 47 -12 80 -21 69 -18 332 -146 367 -178
13 -12 42 -34 64 -49 43 -30 114 -98 184 -174 78 -85 190 -241 190 -264 0 -11
21 -52 31 -60 14 -12 84 -204 95 -260 3 -14 9 -41 14 -60 37 -148 25 -540 -20
-645 -5 -11 -16 -47 -26 -80 -20 -71 -115 -265 -153 -315 -15 -19 -35 -48 -45
-64 -33 -53 -181 -206 -246 -255 -19 -14 -37 -28 -40 -32 -9 -10 -104 -73
-145 -96 -131 -74 -293 -133 -435 -159 -126 -23 -359 -23 -495 1 -120 21 -355
98 -355 117 0 4 -9 8 -20 8 -11 0 -20 5 -20 10 0 6 -6 10 -12 10 -13 0 -160
91 -183 113 -7 7 -28 24 -47 39 -69 55 -238 234 -238 253 0 3 -8 15 -18 26
-11 10 -25 32 -33 47 -8 15 -17 29 -20 32 -4 3 -29 52 -58 110 -50 103 -77
175 -87 235 -3 17 -11 36 -16 43 -6 6 -8 12 -5 12 2 0 -2 28 -9 63 -17 76 -26
320 -14 402 14 100 21 139 30 170 49 161 67 210 107 289 25 50 48 93 52 96 3
3 15 21 25 40 52 93 221 275 332 357 85 64 99 73 111 73 7 0 13 4 13 9 0 5 15
14 33 22 17 7 48 22 67 34 19 12 51 27 70 34 19 7 44 17 55 22 44 18 194 58
260 68 39 6 81 13 95 15 49 9 316 -4 380 -18z"/>
<path d="M1592 2361 c-55 -19 -162 -88 -217 -139 -82 -76 -328 -437 -341 -499
-7 -36 26 -78 69 -88 35 -9 50 9 117 135 28 52 58 105 66 118 9 12 12 22 6 22
-15 0 -56 -58 -97 -140 -57 -114 -81 -133 -120 -90 -22 24 -15 69 19 120 13
19 48 73 79 120 90 136 109 163 172 234 99 111 220 189 316 202 49 7 159 -12
159 -27 0 -5 6 -9 13 -9 7 0 21 -10 31 -22 10 -13 25 -31 33 -40 35 -40 32
-131 -8 -238 -34 -92 -199 -310 -364 -480 l-121 -125 -3 -126 c-1 -70 3 -173
9 -230 16 -139 18 -189 9 -189 -4 0 -10 16 -14 36 -5 27 -9 34 -17 26 -8 -8
-8 -23 2 -54 8 -24 13 -49 11 -56 -1 -8 3 -20 10 -28 13 -16 4 -33 -10 -18
-28 30 -70 260 -79 434 l-7 125 -33 20 c-19 11 -52 36 -74 55 l-41 35 54 15
c85 25 94 46 103 227 4 81 8 160 10 176 4 36 -11 45 -18 10 -3 -16 -10 -100
-17 -188 -13 -177 -17 -188 -81 -205 -32 -9 -42 -8 -63 7 -13 10 -25 23 -25
29 0 6 -7 18 -16 25 -15 12 -16 11 -10 -11 24 -85 96 -168 159 -184 25 -6 27
-11 28 -54 0 -26 2 -56 4 -67 1 -11 6 -53 9 -94 6 -69 22 -156 48 -261 13 -51
52 -136 76 -162 18 -21 60 -26 45 -5 -17 23 -36 118 -25 129 6 6 7 21 2 38 -4
15 -9 52 -9 81 -1 30 -5 114 -9 187 -4 78 -3 137 2 142 6 6 5 18 -1 32 -6 13
-7 42 -4 66 5 38 18 55 118 155 206 207 345 406 383 549 20 76 21 93 11 130
-38 132 -199 201 -349 149z"/>
<path d="M1708 2306 c-67 -26 -151 -71 -184 -100 -35 -30 -39 -39 -45 -97 -3
-35 -16 -131 -28 -213 -24 -169 -25 -186 -11 -186 6 0 10 15 10 33 1 17 8 68
16 112 8 44 15 87 15 95 0 8 5 39 11 69 5 29 10 74 10 100 -1 46 0 47 61 89
34 23 86 51 115 62 52 20 146 27 156 12 9 -15 -14 -108 -40 -156 -33 -66 -152
-228 -253 -345 -44 -52 -79 -97 -76 -99 8 -8 71 52 126 121 95 120 118 151
166 222 25 39 49 72 53 75 10 7 36 85 45 133 6 32 4 42 -15 63 -19 19 -32 23
-66 21 -24 -1 -53 -6 -66 -11z"/>
<path d="M1495 1666 c-22 -19 -37 -38 -33 -41 6 -7 78 58 78 70 0 9 -4 6 -45
-29z"/>
<path d="M1525 1635 c-27 -24 -48 -46 -45 -48 6 -6 42 25 79 66 35 39 23 33
-34 -18z"/>
<path d="M1345 1307 c-10 -39 16 -318 29 -314 12 4 10 108 -4 169 -4 21 -6 58
-4 83 2 25 0 55 -5 67 -9 23 -9 22 -16 -5z"/>
<path d="M1122 354 c-12 -8 -22 -22 -22 -30 0 -21 17 -17 23 6 3 14 14 20 31
20 30 0 34 -13 9 -32 -22 -16 -43 -52 -43 -73 0 -22 47 -42 62 -27 9 9 6 12
-14 12 -36 0 -42 14 -22 46 14 21 23 25 46 20 15 -3 28 -1 28 4 0 5 -9 10 -19
12 -17 3 -18 5 -6 21 10 14 21 17 43 12 l30 -6 -34 -51 c-32 -47 -36 -68 -13
-68 6 0 7 5 3 11 -3 6 8 30 25 54 35 48 36 67 6 77 -38 12 -110 8 -133 -8z"/>
<path d="M1514 322 c-31 -25 -57 -69 -49 -83 5 -6 14 5 25 29 31 68 54 67 25
-1 -8 -20 -15 -44 -15 -54 1 -10 11 7 24 37 13 29 22 60 19 67 -3 8 3 13 15
13 44 0 35 -70 -16 -122 -29 -31 -50 -36 -58 -13 -4 8 -10 12 -16 9 -14 -9 12
-34 36 -34 28 1 49 18 75 60 25 42 28 95 5 104 -26 10 -48 6 -70 -12z"/>
<path d="M1320 284 c-14 -24 -28 -44 -32 -44 -5 0 -8 -7 -8 -15 0 -8 5 -15 10
-15 6 0 10 6 10 13 0 7 14 32 30 54 17 23 27 44 22 47 -4 2 -19 -15 -32 -40z"/>
<path d="M1856 308 c-21 -29 -20 -57 1 -65 17 -7 53 28 53 51 -1 6 -8 -2 -16
-17 -8 -15 -19 -25 -24 -22 -15 10 -12 45 5 51 8 4 15 10 15 15 0 16 -19 9
-34 -13z"/>
<path d="M1758 293 c-13 -3 -18 -14 -17 -41 l1 -37 9 33 c11 37 34 45 25 8 -7
-29 4 -39 31 -29 19 8 30 73 12 73 -5 0 -9 -11 -9 -24 0 -14 -4 -28 -10 -31
-6 -4 -10 7 -10 24 0 17 -3 30 -7 30 -5 -1 -16 -3 -25 -6z"/>
<path d="M1260 263 c-21 -27 -22 -44 -3 -50 7 -3 9 4 7 14 -3 10 4 28 16 41
11 12 16 22 11 22 -5 0 -19 -12 -31 -27z"/>
<path d="M1660 273 c0 -8 5 -11 11 -7 7 4 9 -1 7 -12 -2 -11 -11 -18 -18 -16
-11 3 -10 -1 3 -16 22 -24 22 -32 -2 -32 -11 0 -27 -7 -36 -16 -14 -15 -15
-19 -2 -31 12 -12 19 -13 36 -4 11 7 21 16 21 20 0 5 10 7 23 4 19 -4 20 -3 6
9 -26 21 -32 55 -15 80 16 22 16 22 17 -12 l1 -35 8 35 c10 41 9 42 -30 45
-21 2 -30 -2 -30 -12z m10 -102 c0 -15 -28 -33 -40 -26 -8 5 -8 11 1 21 13 15
39 19 39 5z"/>
<path d="M1616 271 c-20 -32 -24 -60 -10 -72 13 -11 14 -9 8 15 -4 19 -1 33
11 46 10 11 13 20 7 20 -6 0 -13 -4 -16 -9z"/>
<path d="M1332 241 c-20 -28 -20 -41 1 -41 6 0 7 3 4 7 -4 3 0 17 9 31 23 34
12 37 -14 3z"/>
<path d="M1372 245 c-19 -42 -14 -53 9 -16 23 38 34 37 20 -2 -11 -29 3 -47
22 -28 8 8 8 11 -2 11 -8 0 -11 6 -7 15 3 8 9 22 12 30 12 28 -41 18 -54 -10z"/>
</g>
</svg>
